<svg xmlns="http://www.w3.org/2000/svg" width="24" height="24" viewBox="0 0 24 24" fill="none" class="dragger">
    <path class="dragger-path" fill="rgba(139, 140, 140)" sccale="1.5" d="M7.33329 14C7.1444 14 6.98607 13.9361 6.85829 13.8083C6.73051 13.6806 6.66663 13.5222 6.66663 13.3333C6.66663 13.1444 6.73051 12.9861 6.85829 12.8583C6.98607 12.7306 7.1444 12.6667 7.33329 12.6667H16.6666C16.8555 12.6667 17.0138 12.7306 17.1416 12.8583C17.2694 12.9861 17.3333 13.1444 17.3333 13.3333C17.3333 13.5222 17.2694 13.6806 17.1416 13.8083C17.0138 13.9361 16.8555 14 16.6666 14H7.33329ZM7.33329 11.3333C7.1444 11.3333 6.98607 11.2694 6.85829 11.1417C6.73051 11.0139 6.66663 10.8556 6.66663 10.6667C6.66663 10.4778 6.73051 10.3194 6.85829 10.1917C6.98607 10.0639 7.1444 10 7.33329 10H16.6666C16.8555 10 17.0138 10.0639 17.1416 10.1917C17.2694 10.3194 17.3333 10.4778 17.3333 10.6667C17.3333 10.8556 17.2694 11.0139 17.1416 11.1417C17.0138 11.2694 16.8555 11.3333 16.6666 11.3333H7.33329Z"></path>
  </svg>